<svg width="1200" height="900" viewBox="0 0 1200 900" fill="none" xmlns="http://www.w3.org/2000/svg">
  <rect width="1200" height="900" fill="#0F172A"/>
  <rect x="48" y="48" width="1104" height="804" rx="44" fill="url(#paint0_linear_2_12)"/>
  <circle cx="1010" cy="170" r="72" fill="#FED7AA" fill-opacity="0.95"/>
  <path d="M114 676C245.84 484.889 424.577 389.333 650.211 389.333C875.845 389.333 1062.77 484.889 1211 676H114Z" fill="#FDBA74"/>
  <path d="M-12 778C155.013 579.277 382.391 479.915 670.132 479.915C957.874 479.915 1192.83 579.277 1375 778H-12Z" fill="#F97316"/>
  <rect x="128" y="128" width="368" height="268" rx="30" fill="#FFF7ED" fill-opacity="0.95"/>
  <rect x="168" y="176" width="176" height="24" rx="12" fill="#FDBA74"/>
  <rect x="168" y="222" width="244" height="42" rx="21" fill="#0F172A"/>
  <rect x="168" y="286" width="198" height="18" rx="9" fill="#94A3B8"/>
  <rect x="168" y="320" width="154" height="18" rx="9" fill="#CBD5E1"/>
  <rect x="168" y="430" width="318" height="212" rx="28" fill="#FFFFFF" fill-opacity="0.96"/>
  <rect x="204" y="468" width="132" height="18" rx="9" fill="#CBD5E1"/>
  <rect x="204" y="504" width="190" height="34" rx="17" fill="#0F172A"/>
  <rect x="204" y="560" width="102" height="62" rx="20" fill="#F97316"/>
  <path d="M650 278C650 220.562 696.562 174 754 174H926C983.438 174 1030 220.562 1030 278V424H650V278Z" fill="#0F172A"/>
  <path d="M614 424H1066V594C1066 667.454 1006.45 727 933 727H747C673.546 727 614 667.454 614 594V424Z" fill="#1E293B"/>
  <rect x="709" y="500" width="262" height="150" rx="28" fill="#F8FAFC"/>
  <rect x="760" y="548" width="160" height="18" rx="9" fill="#CBD5E1"/>
  <rect x="760" y="584" width="106" height="18" rx="9" fill="#E2E8F0"/>
  <defs>
    <linearGradient id="paint0_linear_2_12" x1="600" y1="48" x2="600" y2="852" gradientUnits="userSpaceOnUse">
      <stop stop-color="#1E293B"/>
      <stop offset="1" stop-color="#0F172A"/>
    </linearGradient>
  </defs>
</svg>
