<svg width="1000" height="900" viewBox="0 0 1000 900" fill="none" xmlns="http://www.w3.org/2000/svg">
  <rect width="1000" height="900" rx="40" fill="#0F172A"/>
  <rect x="48" y="86" width="904" height="766" rx="36" fill="url(#paint0_linear_5_14)"/>
  <circle cx="798" cy="184" r="70" fill="#FDBA74"/>
  <path d="M97 694C196.08 558.507 330.36 490.76 499.84 490.76C669.321 490.76 809.707 558.507 921 694H97Z" fill="#FB923C"/>
  <path d="M37 784C162.173 625.688 332.274 546.531 547.304 546.531C762.334 546.531 937.9 625.688 1074 784H37Z" fill="#F97316"/>
  <rect x="122" y="152" width="360" height="220" rx="28" fill="#FFF7ED"/>
  <rect x="166" y="200" width="152" height="20" rx="10" fill="#FDBA74"/>
  <rect x="166" y="238" width="224" height="34" rx="17" fill="#0F172A"/>
  <rect x="166" y="294" width="180" height="16" rx="8" fill="#94A3B8"/>
  <rect x="550" y="280" width="292" height="352" rx="30" fill="#FFFFFF" fill-opacity="0.97"/>
  <rect x="596" y="334" width="204" height="18" rx="9" fill="#CBD5E1"/>
  <rect x="596" y="380" width="204" height="56" rx="20" fill="#E2E8F0"/>
  <rect x="596" y="458" width="204" height="56" rx="20" fill="#E2E8F0"/>
  <rect x="596" y="548" width="126" height="48" rx="24" fill="#F97316"/>
  <defs>
    <linearGradient id="paint0_linear_5_14" x1="500" y1="86" x2="500" y2="852" gradientUnits="userSpaceOnUse">
      <stop stop-color="#1E293B"/>
      <stop offset="1" stop-color="#0F172A"/>
    </linearGradient>
  </defs>
</svg>
