<?xml version="1.0" encoding="utf-8"?>
<!-- Generator: Adobe Illustrator 27.5.0, SVG Export Plug-In . SVG Version: 6.00 Build 0)  -->
<svg version="1.1" xmlns="http://www.w3.org/2000/svg" xmlns:xlink="http://www.w3.org/1999/xlink" x="0px" y="0px"
	 viewBox="0 0 3710 3710" style="enable-background:new 0 0 3710 3710;" xml:space="preserve">
<g id="Background">
	<g>
		<g>
			<rect style="fill:#FFFFFF;" width="3710" height="3710"/>
		</g>
	</g>
</g>
<g id="Illustration">
	<g>
		<linearGradient id="SVGID_1_" gradientUnits="userSpaceOnUse" x1="3651.3721" y1="4133.5571" x2="1110.8595" y2="978.4">
			<stop  offset="0" style="stop-color:#DAE3FE"/>
			<stop  offset="1" style="stop-color:#E9EFFD"/>
		</linearGradient>
		<path style="fill:url(#SVGID_1_);" d="M2960.304,2883.833c-58.784,61.136-114.406,100.563-158.351,131.712
			c-516.569,366.155-1127.807,259.422-1257.713,233.357c-191.829-38.49-562.632-112.889-830.715-424.332
			c-405.588-471.186-342.432-1213.526-27.831-1703.555c57.545-89.635,361.518-587.128,979.339-666.91
			c373.899-48.283,809.745,49.098,1125.373,310.329C3452.938,1312.781,3405.773,2420.538,2960.304,2883.833z"/>
		<g>
			<g>
				<path style="fill:#7D97F4;" d="M1867.5,3173.521c0,0,564.078-1424.996,1402.057-1580.663
					c14.87-2.763,28.416,9.124,27.688,24.232C3288.773,1792.864,3181.431,2723.122,1867.5,3173.521z"/>
				<path style="opacity:0.62;fill:#FFFFFF;" d="M3119.004,1823.994c-42.788,61.064-87.626,120.521-133.082,179.53
					c-11.348,14.762-22.949,29.329-34.411,44.004c-11.553,14.601-22.861,29.4-34.617,43.839l-35.139,43.425
					c-11.766,14.432-23.284,29.067-35.338,43.263c-23.942,28.524-47.656,57.244-71.787,85.606l-73.15,84.454
					c-49.627,55.542-99.22,111.129-150.369,165.293l-38.066,40.898c-12.539,13.782-25.833,26.836-38.71,40.292l-77.696,80.347
					l-79.701,78.377c-13.315,13.034-26.5,26.206-40.074,38.968l-41.112,37.88c-27.461,25.189-54.641,50.701-82.566,75.378
					l-84.904,72.751l-21.321,18.067c-7.167,5.953-14.132,12.141-21.463,17.899l-43.861,34.666
					c-14.577,11.602-29.361,22.949-44.031,34.427c-14.685,11.461-29.387,22.895-44.176,34.211c-1.132,0.866-2.751,0.65-3.618-0.482
					c-0.834-1.092-0.664-2.638,0.364-3.524l0.072-0.061c14.129-12.128,28.344-24.135,42.579-36.114
					c14.245-11.966,28.379-24.061,42.719-35.899l42.892-35.659c14.139-12.074,27.844-24.66,41.873-36.862l83.988-73.404
					l82.261-75.341l41.163-37.637c6.879-6.253,13.428-12.856,20.171-19.257l20.178-19.253l80.703-77.046
					c52.487-52.703,105.856-104.587,156.541-159.078c25.598-26.998,51.501-53.72,76.229-81.526
					c24.937-27.611,50.1-55.021,74.854-82.8l73.404-84.094c24.217-28.248,48.02-56.85,72.052-85.259
					c12.099-14.136,23.663-28.716,35.474-43.088l35.277-43.256c11.803-14.382,23.156-29.127,34.755-43.671
					c11.51-14.618,23.159-29.131,34.554-43.836c45.414-58.935,90.193-118.449,132.831-179.348l0.03-0.044
					c0.817-1.166,2.427-1.452,3.594-0.633c1.169,0.819,1.452,2.429,0.635,3.595L3119.004,1823.994z"/>
			</g>
			<g style="opacity:0.79;">
				<path style="fill:#91B3FA;" d="M1730.809,2356.268c0,0,274.219-1258.344,1102.031-1910.643
					c10.793-8.505,26.768-3.126,30.065,10.215C2914.977,666.548,3186.092,2010.508,1730.809,2356.268z"/>
				<path style="opacity:0.62;fill:#FFFFFF;" d="M2744.946,808.637c-9.507,36.505-20.567,72.468-32.237,108.269
					c-11.693,35.781-23.976,71.376-37.029,106.692c-26.184,70.598-54.695,140.344-85.426,209.109
					c-7.62,17.218-15.658,34.248-23.469,51.385c-7.858,17.114-16.348,33.928-24.492,50.91c-8.085,17.009-16.826,33.695-25.31,50.509
					l-12.835,25.165l-13.283,24.933c-35.385,66.501-72.665,132.046-112.837,195.812c-40.298,63.661-82.177,126.39-127.358,186.73
					c-5.594,7.58-11.08,15.237-16.762,22.753l-17.334,22.325l-17.333,22.322c-5.81,7.415-11.447,14.968-17.54,22.161l-35.996,43.586
					l-9.037,10.861l-9.364,10.588l-18.724,21.173c-99.355,113.359-210.563,216.264-330.804,306.857
					c-0.992,0.748-2.4,0.549-3.148-0.441c-0.729-0.967-0.558-2.334,0.37-3.093l0.051-0.041l43.657-35.605l21.859-17.744
					l21.156-18.583l42.262-37.192l40.861-38.722c6.761-6.502,13.728-12.788,20.39-19.391l19.787-20.011
					c13.125-13.405,26.526-26.537,39.422-40.157c25.351-27.658,51.298-54.764,75.432-83.507l18.401-21.278l9.199-10.639
					l8.875-10.915l35.595-43.573c6.035-7.179,11.619-14.719,17.376-22.123l17.171-22.285l17.169-22.282
					c5.629-7.502,11.062-15.15,16.604-22.713c44.752-60.225,86.213-122.836,126.1-186.362
					c40.098-63.419,77.573-128.492,113.042-194.626l13.329-24.788l12.881-25.027c8.517-16.716,17.291-33.308,25.41-50.23
					c16.659-33.631,32.74-67.542,48.572-101.578c31.421-68.179,60.616-137.399,87.57-207.485
					c13.676-34.972,26.589-70.237,38.922-105.708c6.185-17.727,12.142-35.535,17.902-53.403
					c5.847-17.835,11.437-35.787,16.602-53.781l0.012-0.044c0.344-1.193,1.588-1.883,2.781-1.54
					C2744.565,806.249,2745.25,807.462,2744.946,808.637z"/>
			</g>
		</g>
		<g style="opacity:0.76;">
			<path style="fill:#91B3FA;" d="M1300.612,2288.732c0,0-106.938-1116.261-755.162-1765.819
				c-8.452-8.469-22.819-5.471-27.049,5.722C451.59,705.419,78.205,1839.3,1300.612,2288.732z"/>
			<path style="opacity:0.62;fill:#FFFFFF;" d="M588.063,845.267c11.065,64.362,25.379,128.28,41.745,191.55
				c16.108,63.355,34.238,126.188,54.4,188.353c10.199,31.041,20.609,62.011,31.534,92.799c5.272,15.463,11.143,30.707,16.78,46.039
				l8.552,22.959l8.965,22.8c23.833,60.818,49.519,120.926,77.624,179.877c27.889,59.036,57.234,117.445,89.669,174.13
				c4.006,7.112,7.908,14.284,11.995,21.349l12.53,21.038l12.531,21.039c4.208,6.994,8.252,14.089,12.724,20.917l26.243,41.349
				l6.532,10.356l6.842,10.151l13.686,20.304c17.863,27.352,37.464,53.477,56.494,80.021c9.726,13.112,19.939,25.856,29.887,38.806
				l15.017,19.354c5.068,6.401,10.438,12.556,15.599,18.883l31.261,37.735l32.634,36.563l16.341,18.273l17.035,17.619l33.992,35.353
				l0.041,0.044c0.861,0.896,0.834,2.321-0.062,3.18c-0.871,0.839-2.245,0.829-3.111,0.003
				c-94.775-90.595-180.399-191.028-254.676-299.29l-14.02-20.237l-7.012-10.12l-6.699-10.326l-26.639-41.407
				c-4.526-6.849-8.623-13.964-12.883-20.975l-12.687-21.099l-12.687-21.096c-4.139-7.085-8.092-14.277-12.148-21.409
				c-32.848-56.85-62.592-115.424-90.873-174.642c-28.138-59.306-53.575-119.854-77.28-181.033l-8.902-22.939l-8.49-23.094
				c-5.594-15.419-11.422-30.754-16.651-46.302c-5.281-15.53-10.878-30.95-15.901-46.564c-4.967-15.632-10.144-31.196-14.939-46.878
				c-38.536-125.369-70.554-252.911-89.448-382.814c-0.178-1.226,0.672-2.368,1.902-2.547c1.208-0.175,2.331,0.643,2.538,1.839
				L588.063,845.267z"/>
		</g>
		<g>
			
				<linearGradient id="SVGID_00000116939170491767310250000015541740290813856653_" gradientUnits="userSpaceOnUse" x1="2341.1826" y1="440.3481" x2="-687.7002" y2="5935.6123">
				<stop  offset="0" style="stop-color:#09005D"/>
				<stop  offset="1" style="stop-color:#1A0F91"/>
			</linearGradient>
			<path style="fill:url(#SVGID_00000116939170491767310250000015541740290813856653_);" d="M725.786,589.298
				c-9.283,438.044-39.387,1949.019-25.016,2484.463c1.523,56.724,40.393,102.253,88.882,104.11
				c239.818,9.181,1118.978,32.451,1511.239,13.199c81.702-4.01,146.674-81.43,148.37-177.073
				c8.153-459.783,26.135-1752.975-16.609-2345.387c-5.123-70.979-52.745-127.503-113.332-134.595
				c-261.173-30.565-1144.113-105.279-1483.004-79.551C775.196,459.104,727.304,517.67,725.786,589.298z"/>
			<path style="fill:#7D97F4;" d="M832.792,723.693c-12.908,353.567-53.625,1529.797-40.703,1964.742
				c1.889,63.574,44.719,114.977,99.002,118.695c223.499,15.3,986.021,49.036,1313.839,18.328
				c59.028-5.53,105.349-61.377,108.535-130.553c16.613-360.71,64.31-1455.946,51.924-1886.018
				c-1.977-68.608-47.406-124.639-105.851-130.777c-241.79-25.397-1052.057-85.825-1330.625-68.045
				C876.62,613.403,835.027,662.483,832.792,723.693z"/>
			
				<linearGradient id="SVGID_00000085947725026400266110000000902788105702505615_" gradientUnits="userSpaceOnUse" x1="1432.551" y1="-1134.0284" x2="1536.0515" y2="-78.3152">
				<stop  offset="0" style="stop-color:#4F52FF"/>
				<stop  offset="1" style="stop-color:#4042E2"/>
			</linearGradient>
			<path style="fill:url(#SVGID_00000085947725026400266110000000902788105702505615_);" d="M1432.307,541.354L1432.307,541.354
				c0,13.441,8.953,24.527,20.427,25.228c56.643,3.47,216.21,13.289,287.523,18.129c14.061,0.955,25.097-13.831,22.429-30.009
				l-0.455-2.761c-1.821-11.039-9.646-19.348-19.216-20.374c-48.204-5.168-193.655-19.496-290.026-15.471
				C1441.413,516.581,1432.307,527.803,1432.307,541.354z"/>
			<g>
				<g>
					
						<linearGradient id="SVGID_00000093167616515160432560000004306391018037860029_" gradientUnits="userSpaceOnUse" x1="1209.2583" y1="1130.7477" x2="1878.2675" y2="1130.7477">
						<stop  offset="0" style="stop-color:#4F52FF"/>
						<stop  offset="1" style="stop-color:#4042E2"/>
					</linearGradient>
					
						<circle style="fill:url(#SVGID_00000093167616515160432560000004306391018037860029_);" cx="1543.763" cy="1130.748" r="334.505"/>
					<path style="fill:#FFFFFF;" d="M1646.177,1004.349c0,56.64-45.916,117.787-102.556,117.787
						c-56.64,0-102.556-61.147-102.556-117.787c0-56.64,45.916-96.823,102.556-96.823
						C1600.261,907.526,1646.177,947.709,1646.177,1004.349z"/>
					<path style="fill:#FFFFFF;" d="M1416.349,1340.205h250.357c26.354,0,49.687-17.033,57.717-42.133l13.472-42.106
						c9.864-30.83-6.173-64.209-36.574-75.324c-101.886-37.253-207.239-32.473-315.162,3.438
						c-30.234,10.06-47.012,42.4-38.669,73.152l10.374,38.24C1365.026,1321.875,1388.991,1340.205,1416.349,1340.205z"/>
				</g>
				<g style="opacity:0.71;">
					<path style="opacity:0.65;fill:#FFFFFF;" d="M2185.341,1999.462H964.518c-3.728,0-6.75-3.022-6.75-6.75v-176.396
						c0-3.728,3.022-6.75,6.75-6.75h1220.823c3.728,0,6.75,3.022,6.75,6.75v176.396
						C2192.091,1996.44,2189.069,1999.462,2185.341,1999.462z"/>
					<path style="opacity:0.65;fill:#FFFFFF;" d="M2178.68,2309.292H957.857c-3.728,0-6.75-3.022-6.75-6.75v-176.396
						c0-3.728,3.022-6.75,6.75-6.75H2178.68c3.728,0,6.75,3.022,6.75,6.75v176.396
						C2185.43,2306.27,2182.408,2309.292,2178.68,2309.292z"/>
					<path style="opacity:0.65;fill:#FFFFFF;" d="M1940.321,2678.829h-780.717c-4.601,0-8.332-3.73-8.332-8.331v-225.439
						c0-4.601,3.73-8.331,8.332-8.331h780.717c4.601,0,8.331,3.73,8.331,8.331v225.439
						C1948.652,2675.099,1944.922,2678.829,1940.321,2678.829z"/>
				</g>
				<path style="opacity:0.75;fill:#FFFFFF;" d="M1735.635,1958.082h-711.19c-6.627,0-11.999-5.372-11.999-11.999v-81.504
					c0-6.627,5.372-11.999,11.999-11.999h711.19c6.627,0,11.999,5.372,11.999,11.999v81.504
					C1747.635,1952.709,1742.263,1958.082,1735.635,1958.082z"/>
				<g style="opacity:0.75;">
					
						<ellipse transform="matrix(0.9239 -0.3827 0.3827 0.9239 -766.3589 565.3729)" style="fill:#FFFFFF;" cx="1037.981" cy="2209.059" rx="43.312" ry="43.312"/>
					<circle style="fill:#FFFFFF;" cx="1156.819" cy="2211.282" r="43.312"/>
					
						<ellipse transform="matrix(0.2298 -0.9732 0.9732 0.2298 -1178.3975 2944.6963)" style="fill:#FFFFFF;" cx="1271.193" cy="2216.833" rx="43.312" ry="43.312"/>
					<circle style="fill:#FFFFFF;" cx="1390.031" cy="2219.056" r="43.312"/>
					<circle style="fill:#FFFFFF;" cx="1508.853" cy="2217.941" r="43.312"/>
					<circle style="fill:#FFFFFF;" cx="1627.691" cy="2220.165" r="43.312"/>
				</g>
			</g>
		</g>
		<g>
			
				<linearGradient id="SVGID_00000170996329686889595280000016868404043876773028_" gradientUnits="userSpaceOnUse" x1="-5865.7163" y1="3240.6824" x2="-5491.1108" y2="2276.3142" gradientTransform="matrix(-1 0 0 1 -3446.3174 0)">
				<stop  offset="0" style="stop-color:#FEBBBA"/>
				<stop  offset="1" style="stop-color:#FF928E"/>
			</linearGradient>
			<path style="fill:url(#SVGID_00000170996329686889595280000016868404043876773028_);" d="M2122.281,2361.547l132.688,33.172
				l-33.171,248.792c0,0,49.759,49.758,66.344,116.102c16.587,66.345,31.878,344.914,31.878,344.914l31.485,19.033l3.829,15.89
				l-91.599,123.162l15.19-98.026c2.412-15.561-1.766-47.12-0.451-47.78c-49.758-132.69-156.193-506.468-156.193-506.468V2361.547z"
				/>
			
				<linearGradient id="SVGID_00000180327064270996029710000010554589115759469982_" gradientUnits="userSpaceOnUse" x1="-5871.4077" y1="6342.6343" x2="-4633.2808" y2="-8127.979" gradientTransform="matrix(-1 0 0 1 -3446.3174 0)">
				<stop  offset="0" style="stop-color:#FEBBBA"/>
				<stop  offset="1" style="stop-color:#FF928E"/>
			</linearGradient>
			<path style="fill:url(#SVGID_00000180327064270996029710000010554589115759469982_);" d="M2083.51,3141.156
				c1.436-0.025,2.848,0.09,4.292,0c-6.411-79.99-35.714-432.04-65.037-563.99c-33.172-149.274,49.758-447.824,49.758-447.824
				l149.276,149.275l-82.931,281.963c56.832,85.247-9.271,584.476-7.847,584.26l-0.091,1.11l21.64,29.754l-2.632,16.131
				l-132.191,78.006l52.014-84.466C2078.017,3171.966,2082.578,3156.765,2083.51,3141.156z"/>
			
				<linearGradient id="SVGID_00000029008546437823231400000005005702997858503574_" gradientUnits="userSpaceOnUse" x1="-5826.9023" y1="1715.0577" x2="-5668.1157" y2="1715.0577" gradientTransform="matrix(-1 0 0 1 -3446.3174 0)">
				<stop  offset="0" style="stop-color:#FEBBBA"/>
				<stop  offset="1" style="stop-color:#FF928E"/>
			</linearGradient>
			<path style="fill:url(#SVGID_00000029008546437823231400000005005702997858503574_);" d="M2251.412,1467.298
				c0,0,290.639,327.566,0,495.52l-29.614-21.442c0,0,144.294-138.173,0-307.317L2251.412,1467.298z"/>
			
				<linearGradient id="SVGID_00000134928785223679225890000002469684624152931743_" gradientUnits="userSpaceOnUse" x1="-5317.0078" y1="3268.0322" x2="-4939.2827" y2="2688.5081" gradientTransform="matrix(-1 0 0 1 -3211.1565 0)">
				<stop  offset="0" style="stop-color:#4F52FF"/>
				<stop  offset="1" style="stop-color:#4042E2"/>
			</linearGradient>
			<path style="fill:url(#SVGID_00000134928785223679225890000002469684624152931743_);" d="M2009.04,3282.074h42.186
				c7.896,0,15.343-3.625,20.158-9.883c13.151-17.088,40.398-50.427,53.426-51.296c17.54-1.173,15.296,61.179,15.296,61.179h9.831
				l12.453-77.479c3.133-19.495-6.562-38.807-24.068-47.94l0,0c0,0-4.009,29.65-25.748,42.764
				c-21.739,13.116-88.463,60.083-88.463,60.083s-8.173-1.166-17.146,0.456C1993.656,3262.364,1995.514,3282.074,2009.04,3282.074z"
				/>
			
				<linearGradient id="SVGID_00000106845231589763080660000016686244350660516744_" gradientUnits="userSpaceOnUse" x1="-5657.3438" y1="3444.5183" x2="-5238.2246" y2="2720.1133" gradientTransform="matrix(-1 0 0 1 -3211.1565 0)">
				<stop  offset="0" style="stop-color:#4F52FF"/>
				<stop  offset="1" style="stop-color:#4042E2"/>
			</linearGradient>
			<path style="fill:url(#SVGID_00000106845231589763080660000016686244350660516744_);" d="M2260.456,3277.267l38.884-16.359
				c7.277-3.062,12.737-9.292,14.75-16.927c5.496-20.851,17.682-62.147,29.354-68.001c15.712-7.881,37.822,50.462,37.822,50.462
				l9.062-3.813l-18.566-76.245c-4.671-19.184-21.097-33.225-40.773-34.856l0,0c0,0,7.801,28.884-7.151,49.403
				c-14.952,20.518-58.244,89.685-58.244,89.685s-7.984,2.095-15.627,7.07C2238.631,3265.063,2247.988,3282.512,2260.456,3277.267z"
				/>
			
				<linearGradient id="SVGID_00000107572798461728457570000016194317354941215622_" gradientUnits="userSpaceOnUse" x1="2509.2095" y1="1681.2078" x2="2178.0366" y2="2129.6714">
				<stop  offset="0" style="stop-color:#4F52FF"/>
				<stop  offset="1" style="stop-color:#4042E2"/>
			</linearGradient>
			<path style="fill:url(#SVGID_00000107572798461728457570000016194317354941215622_);" d="M2034.507,1876.935
				c0,0,4.879,29.898-2.268,112.087c-7.148,82.19-41.311,275.156-34.355,459.785c0,0,97.119,22.632,265.85,11.912
				c0,0,71.209-288.26,53.86-397.846c-17.347-109.585-111.448-188.203-111.448-188.203L2034.507,1876.935z"/>
			
				<linearGradient id="SVGID_00000139290824714382917610000016439800968605399220_" gradientUnits="userSpaceOnUse" x1="-5653.4907" y1="1360.7712" x2="-5540.7163" y2="1360.7712" gradientTransform="matrix(-1 0 0 1 -3446.3174 0)">
				<stop  offset="0" style="stop-color:#FEBBBA"/>
				<stop  offset="1" style="stop-color:#FF928E"/>
			</linearGradient>
			<polygon style="fill:url(#SVGID_00000139290824714382917610000016439800968605399220_);" points="2106.27,1327.723 
				2094.399,1467.298 2207.173,1467.298 2179.132,1254.245 			"/>
			
				<linearGradient id="SVGID_00000011009848948161660480000013267555299296578947_" gradientUnits="userSpaceOnUse" x1="3517.7056" y1="1202.8466" x2="3055.4431" y2="1354.634">
				<stop  offset="0" style="stop-color:#FF928E"/>
				<stop  offset="1" style="stop-color:#FE7062"/>
			</linearGradient>
			<path style="fill:url(#SVGID_00000011009848948161660480000013267555299296578947_);" d="M2240.581,1447.998
				c-38.921-2.146-125.94-6.118-187.586-2.759c-32.458,1.768-59.647,25.055-66.287,56.876l-15.035,72.056
				c-5.601,26.838-4.763,54.622,2.443,81.075l60.392,221.691c0,0,53.716,32.28,171.641-2.264c0,0,103.561-246.958,61.17-404.937
				C2264.025,1457.466,2253.266,1448.698,2240.581,1447.998z"/>
			
				<linearGradient id="SVGID_00000093156529883673606850000004183570708935044001_" gradientUnits="userSpaceOnUse" x1="-4991.8267" y1="1425.0671" x2="-5967.187" y2="1983.8331" gradientTransform="matrix(-1 0 0 1 -3446.3174 0)">
				<stop  offset="0" style="stop-color:#FEBBBA"/>
				<stop  offset="1" style="stop-color:#FF928E"/>
			</linearGradient>
			<path style="fill:url(#SVGID_00000093156529883673606850000004183570708935044001_);" d="M1989.656,1489.189
				c-16.612,43.758-31.615,89.642-47.733,132.615c-8.196,21.507-16.509,42.592-25.403,61.955
				c-4.498,9.643-9.44,18.504-13.975,26.538c-4.54,7.954-9.653,14.57-12.316,17.615c-0.523,0.451,1.227,0.796,1.812,0.824
				c0.353,0.044-11.23,1.899-14.783,2.495l-13.882-0.083c-19.898-1.023-42.436-4.531-65.041-8.924
				c-45.596-8.501-93.002-20.438-141.678-29.468l-0.374-0.069c-9.314-1.728-18.265,4.422-19.993,13.737
				c-1.14,6.142,1.17,12.143,5.531,16.003c19.627,17.277,40.432,31.47,62.011,45.284c10.862,6.642,21.914,13.152,33.149,19.403
				c11.455,5.838,22.942,11.725,34.874,17.167c24.022,10.467,48.838,20.109,77.426,26.302c7.514,1.257,14.929,2.575,22.659,3.611
				c8.67,0.301,16.544,1.069,26.012,0.521c5.03-0.498,10.083-1.115,15.122-1.848c2.686-0.473,4.662-0.524,7.917-1.422
				c3.455-1.036,6.901-2.198,10.297-3.472c7.099-2.548,11.689-5.632,17.455-8.84c4.788-3.157,9.155-6.458,13.389-9.843
				c15.629-13.313,25.334-26.525,33.888-39.21c8.529-12.675,15.29-25.372,21.359-37.818c12.175-24.857,21.681-49.487,29.395-74.289
				c15.63-49.7,26.222-98.545,30.692-150.43c2.14-24.852-16.271-46.733-41.123-48.874c-20.568-1.773-39.103,10.535-46.094,28.919
				L1989.656,1489.189z"/>
			
				<linearGradient id="SVGID_00000011718533979754764030000012119200317678387110_" gradientUnits="userSpaceOnUse" x1="-4894.9126" y1="1594.2363" x2="-5870.2725" y2="2153.0017" gradientTransform="matrix(-1 0 0 1 -3446.3174 0)">
				<stop  offset="0" style="stop-color:#FEBBBA"/>
				<stop  offset="1" style="stop-color:#FF928E"/>
			</linearGradient>
			<path style="fill:url(#SVGID_00000011718533979754764030000012119200317678387110_);" d="M1671.979,1715.058l-20.125-47.77
				l-105.92-26.392c0,0-8.473,18.36,36.013,26.392c0,0-15.89,17.563-7.415,38.218
				C1583.007,1726.16,1673.038,1746.852,1671.979,1715.058z"/>
			
				<linearGradient id="SVGID_00000061443610753727072710000004245450613800538242_" gradientUnits="userSpaceOnUse" x1="-5465.6577" y1="1360.7261" x2="-5684.8086" y2="1040.2701" gradientTransform="matrix(-1 0 0 1 -3446.3174 0)">
				<stop  offset="0" style="stop-color:#FEBBBA"/>
				<stop  offset="1" style="stop-color:#FF928E"/>
			</linearGradient>
			<path style="fill:url(#SVGID_00000061443610753727072710000004245450613800538242_);" d="M2058.52,1166.527
				c-4.027,2.375-35.754,114.277-9.167,161.194c26.587,46.918,107.777-5.633,129.779-73.477
				C2201.136,1186.401,2165.785,1103.268,2058.52,1166.527z"/>
			
				<linearGradient id="SVGID_00000164480251028209343660000011288879607198090631_" gradientUnits="userSpaceOnUse" x1="-5346.5723" y1="1131.7708" x2="-5657.0317" y2="1535.3678" gradientTransform="matrix(-1 0 0 1 -3211.1565 0)">
				<stop  offset="0" style="stop-color:#09005D"/>
				<stop  offset="1" style="stop-color:#1A0F91"/>
			</linearGradient>
			<path style="fill:url(#SVGID_00000164480251028209343660000011288879607198090631_);" d="M2268.949,1254.245
				c18.21,89.224,78.55,64.806,121.287,104.501c69.266,64.337,168.352-1.985,264.683,58.983
				c69.542,44.015,103.048,156.62,69.677,247.535c-46.223,125.92-204.182,177.704-286.04,139.352
				c-78.234-36.654-67.094-146.433-172.356-188.859c-44.689-18.012-66.75-6.308-93.514-33.004
				c-46.85-46.733-34.208-137.421-29.338-172.357c10.569-75.809,35.985-89.534,23.837-122.851
				c-23.627-64.803-133.835-51.432-143.02-97.18c-8.363-41.66,71.516-120.625,146.688-108.181
				C2287.159,1101.435,2260.835,1214.494,2268.949,1254.245z"/>
			<path style="opacity:0.6;fill:#FFFFFF;" d="M2689.861,1643.938c1.38,0,2.623-0.933,2.961-2.331
				c14.89-61.819,8.135-112.518-20.09-150.692c-46.838-63.353-137.868-69.621-138.785-69.676c-1.432-0.237-3.116,1.173-3.223,2.856
				c-0.101,1.677,1.172,3.122,2.854,3.222c0.887,0.054,89.164,6.18,134.284,67.255c27.083,36.651,33.488,85.643,19.036,145.607
				c-0.392,1.634,0.613,3.282,2.249,3.675C2689.385,1643.909,2689.629,1643.938,2689.861,1643.938z"/>
			<path style="opacity:0.72;fill:#FFFFFF;" d="M2391.715,1700.53c0.125,0,0.256-0.018,0.386-0.048
				c0.809-0.214,1.296-1.046,1.088-1.862c-14.504-55.652-39.958-94.301-75.641-114.883c-25.958-14.975-50.269-16.367-71.713-17.597
				c-20.679-1.191-38.537-2.219-52.911-14.999c-29.711-26.422-27.992-89.948,5.115-188.816c0.268-0.797-0.166-1.659-0.963-1.927
				c-0.803-0.268-1.66,0.166-1.928,0.964c-33.53,100.129-34.956,164.744-4.246,192.052c15.165,13.488,33.511,14.547,54.76,15.766
				c21.106,1.213,45.031,2.587,70.365,17.198c34.951,20.154,59.922,58.18,74.212,113.017
				C2390.417,1700.078,2391.036,1700.53,2391.715,1700.53z"/>
			<path style="opacity:0.72;fill:#FFFFFF;" d="M2225.864,1232.102c0.161,0,0.32-0.023,0.488-0.077
				c0.797-0.267,1.225-1.136,0.957-1.933c-11.531-34.303-44.752-29.205-79.952-23.794c-22.278,3.426-45.309,6.952-64.845,1.172
				c-14.577-4.323-23.235-11.019-25.74-19.911c-4.276-15.135,10.699-32.013,10.847-32.185c0.566-0.624,0.512-1.588-0.112-2.147
				c-0.619-0.564-1.588-0.511-2.146,0.113c-0.667,0.738-16.243,18.276-11.525,35.041c2.806,9.961,12.162,17.365,27.807,22.004
				c20.203,5.983,43.569,2.396,66.179-1.076c35.332-5.424,65.881-10.128,76.598,21.76
				C2224.633,1231.704,2225.228,1232.102,2225.864,1232.102z"/>
		</g>
		<g>
			<g>
				
					<linearGradient id="SVGID_00000176008423294159331640000000821868812391407745_" gradientUnits="userSpaceOnUse" x1="3091.8804" y1="-28.4316" x2="2654.6394" y2="1585.9927">
					<stop  offset="0" style="stop-color:#E1473D"/>
					<stop  offset="1" style="stop-color:#E9605A"/>
				</linearGradient>
				<path style="fill:url(#SVGID_00000176008423294159331640000000821868812391407745_);" d="M2561.536,885.586
					c0-157.029,133.016-284.31,292.641-284.289c154.906,0.019,277.16,120.597,277.16,269.319
					c0,148.722-122.254,275.724-277.16,283.883C2694.552,1162.906,2561.536,1042.615,2561.536,885.586z"/>
			</g>
			<g>
				
					<linearGradient id="SVGID_00000053541077060323436100000000056967386742386598_" gradientUnits="userSpaceOnUse" x1="3018.2139" y1="366.897" x2="2749.1362" y2="1167.2302">
					<stop  offset="0" style="stop-color:#FF928E"/>
					<stop  offset="1" style="stop-color:#FE7062"/>
				</linearGradient>
				<path style="fill:url(#SVGID_00000053541077060323436100000000056967386742386598_);" d="M2588.236,884.885
					c0-142.313,120.55-257.664,265.216-257.647c140.388,0.018,251.185,109.295,251.185,244.079
					c0,134.784-110.797,249.884-251.185,257.278C2708.786,1136.215,2588.236,1027.197,2588.236,884.885z"/>
			</g>
			<g>
				<path style="fill:#FFFFFF;" d="M2767.527,868.747h-23.768v-94.718c0-37.202,27.849-68.641,64.78-73.13l48.597-5.906
					c20.916-2.542,41.961,4.013,57.735,17.986c15.773,13.972,24.82,34.071,24.82,55.144v82.69h-23.768v-82.69
					c0-14.273-6.127-27.888-16.812-37.352c-10.684-9.464-24.94-13.905-39.107-12.183l-48.597,5.906
					c-25.015,3.04-43.879,24.335-43.879,49.535V868.747z"/>
				<path style="fill:#FFFFFF;" d="M2736.732,847.482l208.351-11.543c8.462-0.469,15.581,6.267,15.581,14.742v165.058
					c0,8.154-6.61,14.764-14.764,14.764h-203.345c-7.967,0-14.497-6.321-14.757-14.283l-5.006-153.515
					C2722.531,854.685,2728.721,847.925,2736.732,847.482z"/>
				
					<linearGradient id="SVGID_00000167370164170872015620000013824212026018136252_" gradientUnits="userSpaceOnUse" x1="2923.552" y1="154.1177" x2="2800.2205" y2="1350.9838">
					<stop  offset="0" style="stop-color:#FF928E"/>
					<stop  offset="1" style="stop-color:#FE7062"/>
				</linearGradient>
				<path style="fill:url(#SVGID_00000167370164170872015620000013824212026018136252_);" d="M2875.691,983.219l-12.611-36.255
					c-1.516-4.359-0.483-9.232,2.758-12.517c6.463-6.548,10.313-15.679,9.857-25.707c-0.804-17.685-15.252-32.024-32.942-32.704
					c-19.577-0.752-35.685,14.896-35.685,34.306c0,10.768,4.96,20.374,12.718,26.667c4.024,3.264,5.677,8.628,3.975,13.521
					l-11.37,32.69c-2.765,7.95,3.137,16.253,11.555,16.253h40.189C2872.553,999.472,2878.456,991.169,2875.691,983.219z"/>
			</g>
		</g>
		<g>
			<g>
				<g style="opacity:0.3;">
					
						<linearGradient id="SVGID_00000037673241584647752950000004497928779572562838_" gradientUnits="userSpaceOnUse" x1="837.889" y1="9844.2627" x2="1493.4451" y2="9844.2627" gradientTransform="matrix(-0.4445 -0.8958 0.8958 -0.4445 -7542.5566 8227.3662)">
						<stop  offset="0" style="stop-color:#FF928E"/>
						<stop  offset="1" style="stop-color:#FE7062"/>
					</linearGradient>
					<path style="fill:url(#SVGID_00000037673241584647752950000004497928779572562838_);" d="M1120.513,2976.658
						c2.515,5.314,0.857,11.866-4.012,15.103c-10.646,7.082-21.747,13.781-32.989,19.914c-5.47,2.984-12.217,0.741-15.07-5.01
						c-0.033-0.07-0.065-0.137-0.097-0.205c-2.704-5.713-0.571-12.663,4.833-15.61c10.681-5.825,21.224-12.191,31.338-18.917
						c5.204-3.463,12.109-1.832,15.418,3.646C1120.149,2975.93,1120.34,2976.292,1120.513,2976.658z M1033.089,3021.295
						c0.194,0.411,0.369,0.84,0.52,1.283c2.081,6.104-0.939,12.814-6.745,14.985c-11.928,4.458-24.156,8.424-36.344,11.786
						c-5.963,1.646-12.054-2.082-13.661-8.366c-1.579-6.267,1.976-12.679,7.934-14.323c11.585-3.197,23.201-6.965,34.536-11.204
						C1024.714,3013.443,1030.602,3016.041,1033.089,3021.295z M938.436,3044.582c0.554,1.17,0.93,2.459,1.088,3.83
						c0.733,6.434-3.633,12.265-9.757,13.023c-12.552,1.555-25.328,2.554-37.972,2.969c-6.166,0.198-11.325-4.89-11.539-11.358
						c-0.207-6.474,4.623-11.889,10.787-12.092c12.007-0.394,24.135-1.343,36.057-2.818
						C931.919,3037.539,936.391,3040.261,938.436,3044.582z M841.131,3045.041c0.916,1.935,1.334,4.156,1.101,6.46
						c-0.651,6.44-6.154,11.093-12.286,10.394c-12.582-1.439-25.256-3.464-37.672-6.021c-6.049-1.252-10.007-7.413-8.84-13.771
						c1.173-6.355,7.034-10.498,13.09-9.251c11.79,2.429,23.828,4.355,35.785,5.717
						C836.247,3039.022,839.487,3041.569,841.131,3045.041z M746.121,3022.699c1.284,2.713,1.575,5.94,0.568,9.025
						c-1.997,6.126-8.347,9.379-14.181,7.265c-11.941-4.322-23.877-9.241-35.469-14.624c-5.649-2.617-8.217-9.544-5.732-15.472
						c2.483-5.923,9.071-8.601,14.72-5.982c11.018,5.118,22.363,9.793,33.711,13.901
						C742.633,3017.86,744.858,3020.03,746.121,3022.699z M658.139,2978.854c1.663,3.513,1.617,7.817-0.487,11.393
						c-3.24,5.506-10.118,7.201-15.369,3.789c-10.759-6.997-21.37-14.565-31.53-22.498c-4.958-3.872-5.997-11.219-2.323-16.416
						c3.669-5.195,10.665-6.271,15.621-2.402c9.656,7.537,19.734,14.729,29.957,21.376
						C655.85,2975.293,657.242,2976.958,658.139,2978.854z M451.975,2605.972c0.689,1.456,1.099,3.082,1.157,4.81
						c0.423,12.596,1.376,25.344,2.835,37.887c0.747,6.432-3.61,12.271-9.73,13.039c-6.123,0.772-11.693-3.818-12.441-10.251
						c-1.536-13.21-2.542-26.636-2.989-39.9c-0.218-6.476,4.604-11.898,10.768-12.11
						C446.096,2599.288,450.084,2601.976,451.975,2605.972z M581.6,2915.684c2.065,4.361,1.393,9.791-2.037,13.446
						c-4.326,4.61-11.396,4.655-15.795,0.103c-9.016-9.331-17.755-19.187-25.976-29.295c-3.988-4.95-3.468-12.335,1.221-16.538
						c4.685-4.2,11.736-3.608,15.75,1.323c7.805,9.6,16.105,18.959,24.665,27.82C580.335,2913.486,581.063,2914.549,581.6,2915.684z
						 M466.351,2707.072c0.328,0.694,0.6,1.431,0.797,2.208c3.098,12.191,6.742,24.404,10.821,36.301
						c2.09,6.102-0.919,12.816-6.72,14.997c-5.802,2.179-12.227-0.978-14.295-7.094c-4.29-12.519-8.124-25.37-11.388-38.197
						c-1.592-6.263,1.948-12.686,7.906-14.342C458.69,2699.493,464.034,2702.177,466.351,2707.072z M520.373,2836.174
						c2.512,5.306,0.862,11.848-3.994,15.091c-5.2,3.473-12.104,1.854-15.427-3.613c-6.795-11.198-13.222-22.854-19.096-34.646
						c-0.039-0.072-0.075-0.148-0.11-0.222c-2.7-5.704-0.577-12.644,4.814-15.599c5.465-2.994,12.215-0.766,15.077,4.982
						c5.583,11.199,11.689,22.269,18.146,32.908C519.999,2835.435,520.197,2835.802,520.373,2836.174z"/>
					
						<linearGradient id="SVGID_00000161624153382862466720000006896990652231973021_" gradientUnits="userSpaceOnUse" x1="1526.2454" y1="9683.8721" x2="1565.1832" y2="9683.8721" gradientTransform="matrix(-0.4445 -0.8958 0.8958 -0.4445 -7542.5566 8227.3662)">
						<stop  offset="0" style="stop-color:#FF928E"/>
						<stop  offset="1" style="stop-color:#FE7062"/>
					</linearGradient>
					<path style="fill:url(#SVGID_00000161624153382862466720000006896990652231973021_);" d="M456.308,2523.74
						c0.98,2.07,1.392,4.463,1.048,6.922c-0.838,5.982-1.568,12.081-2.179,18.132c-0.646,6.439-6.145,11.1-12.278,10.403
						c-6.135-0.693-10.591-6.479-9.933-12.923c0.638-6.364,1.408-12.779,2.288-19.074c0.896-6.406,6.571-10.828,12.671-9.87
						C451.689,2517.918,454.734,2520.413,456.308,2523.74z"/>
				</g>
				<g style="opacity:0.3;">
					
						<linearGradient id="SVGID_00000026143452505746761110000008207232527504297615_" gradientUnits="userSpaceOnUse" x1="1732.7493" y1="9974.3213" x2="1759.6782" y2="9974.3213" gradientTransform="matrix(-0.4445 -0.8958 0.8958 -0.4445 -7542.5566 8227.3662)">
						<stop  offset="0" style="stop-color:#FF928E"/>
						<stop  offset="1" style="stop-color:#FE7062"/>
					</linearGradient>
					<path style="fill:url(#SVGID_00000026143452505746761110000008207232527504297615_);" d="M633.411,2218.737
						c2.402,5.074,1.016,11.361-3.508,14.749c-4.684,3.504-9.377,7.172-13.945,10.899c-4.867,3.97-11.884,3.038-15.675-2.081
						c-3.807-5.142-2.919-12.49,1.945-16.459c4.811-3.923,9.753-7.787,14.684-11.478c5.018-3.755,11.993-2.519,15.582,2.759
						C632.846,2217.645,633.15,2218.185,633.411,2218.737z"/>
					
						<linearGradient id="SVGID_00000011734617433098526450000016880192558692063136_" gradientUnits="userSpaceOnUse" x1="1090.8754" y1="10263.3115" x2="1766.7648" y2="10263.3115" gradientTransform="matrix(-0.4445 -0.8958 0.8958 -0.4445 -7542.5566 8227.3662)">
						<stop  offset="0" style="stop-color:#FF928E"/>
						<stop  offset="1" style="stop-color:#FE7062"/>
					</linearGradient>
					<path style="fill:url(#SVGID_00000011734617433098526450000016880192558692063136_);" d="M1275.887,2387.807
						c2.29,4.838,4.51,9.735,6.661,14.689c2.559,5.901,0.087,12.853-5.524,15.529c-5.611,2.676-12.27,0.044-14.8-5.836
						c-4.964-11.434-10.357-22.631-16.099-33.405c-3.009-5.669-1.1-12.802,4.28-15.957c5.384-3.156,12.191-1.125,15.206,4.535
						C1269.164,2374.025,1272.621,2380.905,1275.887,2387.807z M1303.308,2460.514c0.278,0.587,0.513,1.209,0.7,1.86
						c3.595,12.541,6.723,25.38,9.296,38.16c1.278,6.339-2.579,12.556-8.61,13.882c-6.036,1.326-11.982-2.744-13.24-9.081
						c-2.445-12.138-5.419-24.333-8.831-36.252c-1.779-6.207,1.567-12.741,7.47-14.594
						C1295.382,2452.829,1300.927,2455.485,1303.308,2460.514z M1233.389,2315.656c2.346,4.957,1.088,11.111-3.262,14.559
						c-4.921,3.899-11.924,2.861-15.649-2.313c-7.12-9.9-14.74-19.614-22.657-28.875c-4.118-4.834-3.751-12.244,0.833-16.564
						c4.589-4.322,11.651-3.911,15.776,0.916c8.335,9.752,16.361,19.984,23.861,30.409
						C1232.719,2314.385,1233.084,2315.012,1233.389,2315.656z M1320.66,2559.479c0.632,1.335,1.027,2.818,1.135,4.394
						c0.884,13.045,1.247,26.286,1.08,39.353c-0.083,6.477-5.149,11.643-11.315,11.54c-6.171-0.102-11.103-5.43-11.017-11.914
						c0.158-12.407-0.186-24.98-1.027-37.369c-0.441-6.462,4.195-12.063,10.346-12.507
						C1314.512,2552.64,1318.703,2555.346,1320.66,2559.479z M1167.544,2242.567c1.925,4.066,1.501,9.113-1.464,12.795
						c-3.979,4.941-11.026,5.55-15.74,1.359c-9.01-8.013-18.477-15.733-28.132-22.95c-5.031-3.76-6.22-11.085-2.648-16.362
						c3.569-5.273,10.537-6.501,15.568-2.741c10.167,7.596,20.132,15.725,29.621,24.162
						C1165.949,2239.896,1166.885,2241.175,1167.544,2242.567z M1088.056,2186.382c1.539,3.25,1.626,7.199-0.09,10.657
						c-2.853,5.737-9.598,7.949-15.068,4.94c-10.49-5.77-21.332-11.144-32.223-15.972c-5.692-2.513-8.369-9.392-5.98-15.369
						c2.388-5.969,8.932-8.761,14.622-6.243c11.463,5.081,22.872,10.736,33.909,16.809
						C1085.397,2182.399,1087.041,2184.238,1088.056,2186.382z M998.839,2149.705c1.17,2.472,1.521,5.382,0.788,8.255
						c-1.591,6.254-7.714,9.956-13.673,8.268c-11.439-3.241-23.128-6.012-34.75-8.231c-6.069-1.16-10.11-7.26-9.018-13.642
						c1.092-6.373,6.894-10.599,12.968-9.439c12.229,2.339,24.535,5.252,36.57,8.662
						C994.945,2144.491,997.461,2146.793,998.839,2149.705z M904.182,2134.32c0.811,1.713,1.234,3.655,1.155,5.7
						c-0.251,6.472-5.45,11.49-11.612,11.211c-11.824-0.538-23.799-0.55-35.598-0.036c-6.162,0.268-11.379-4.77-11.649-11.232
						c-0.271-6.474,4.507-11.939,10.669-12.207c12.428-0.542,25.04-0.529,37.486,0.036
						C898.852,2127.985,902.426,2130.609,904.182,2134.32z M808.632,2141.129c0.456,0.963,0.791,2.01,0.985,3.119
						c1.114,6.374-2.903,12.479-8.968,13.63c-11.61,2.209-23.281,4.967-34.696,8.203c-5.953,1.687-12.091-2.037-13.709-8.272
						c-1.622-6.255,1.891-12.694,7.844-14.381c12.016-3.406,24.304-6.311,36.527-8.634
						C801.624,2133.842,806.47,2136.562,808.632,2141.129z M716.952,2169.804c0.102,0.216,0.197,0.437,0.289,0.661
						c2.407,5.969-0.246,12.849-5.924,15.361c-8.017,3.549-16.021,7.398-23.801,11.446c-2.816,1.465-5.611,2.963-8.382,4.483
						c-5.463,2.998-12.216,0.773-15.081-4.97c-3.011-5.755-0.766-12.827,4.692-15.825c2.917-1.602,5.853-3.173,8.817-4.715
						c8.182-4.257,16.608-8.308,25.039-12.039C708.065,2161.785,714.342,2164.29,716.952,2169.804z"/>
					
						<linearGradient id="SVGID_00000072247575947706327260000006635984069425533333_" gradientUnits="userSpaceOnUse" x1="1021.9673" y1="10393.6602" x2="1060.4238" y2="10393.6602" gradientTransform="matrix(-0.4445 -0.8958 0.8958 -0.4445 -7542.5566 8227.3662)">
						<stop  offset="0" style="stop-color:#FF928E"/>
						<stop  offset="1" style="stop-color:#FE7062"/>
					</linearGradient>
					<path style="fill:url(#SVGID_00000072247575947706327260000006635984069425533333_);" d="M1316.799,2660.252
						c0.99,2.091,1.398,4.506,1.042,6.982c-0.908,6.277-1.96,12.651-3.127,18.947c-1.177,6.357-7.04,10.496-13.094,9.243
						c-6.055-1.254-10.012-7.413-8.832-13.775c1.107-5.981,2.106-12.036,2.97-17.995c0.923-6.4,6.618-10.791,12.717-9.803
						C1312.212,2654.46,1315.234,2656.947,1316.799,2660.252z"/>
				</g>
				<g>
					
						<linearGradient id="SVGID_00000058589959371889241840000012977405227283175354_" gradientUnits="userSpaceOnUse" x1="956.7152" y1="2292.866" x2="713.522" y2="3182.8499">
						<stop  offset="0" style="stop-color:#FF928E"/>
						<stop  offset="1" style="stop-color:#FE7062"/>
					</linearGradient>
					<path style="fill:url(#SVGID_00000058589959371889241840000012977405227283175354_);" d="M1194.113,2706.399
						c0.917-2.128,0.446-4.638-1.173-6.247l-46.2-45.92c5.732-30.56,6.865-62.312,2.884-94.117l48.847-42.475
						c1.714-1.49,2.335-3.96,1.549-6.15l-26.907-74.951c-0.787-2.19-2.809-3.618-5.034-3.557l-63.464,1.762
						c-17.013-26.673-37.838-49.776-61.375-68.807l5.866-66.428c0.205-2.328-1.018-4.541-3.047-5.509l-69.441-33.141
						c-2.031-0.969-4.418-0.479-5.946,1.218l-43.61,48.413c-29.11-6.094-59.345-7.359-89.617-3.253l-40.559-51.407
						c-1.422-1.803-3.775-2.462-5.859-1.642l-71.298,28.083c-2.083,0.82-3.439,2.941-3.374,5.279l1.829,66.661
						c-25.355,17.804-47.302,39.621-65.365,64.297l-63.262-6.32c-2.216-0.221-4.32,1.059-5.237,3.188l-31.387,72.855
						c-0.918,2.129-0.446,4.638,1.173,6.248l46.2,45.919c-5.734,30.56-6.866,62.312-2.883,94.117l-48.849,42.476
						c-1.713,1.49-2.335,3.958-1.55,6.149l26.909,74.951c0.786,2.191,2.807,3.619,5.034,3.557l63.465-1.762
						c17.011,26.673,37.837,49.776,61.375,68.807l-5.866,66.427c-0.207,2.329,1.018,4.542,3.047,5.51l69.441,33.14
						c2.029,0.969,4.417,0.479,5.946-1.217l43.61-48.413c29.11,6.095,59.345,7.359,89.617,3.253l40.558,51.407
						c1.421,1.802,3.775,2.463,5.859,1.641l71.296-28.082c2.084-0.821,3.439-2.94,3.375-5.279l-1.83-66.661
						c25.354-17.804,47.301-39.622,65.365-64.297l63.26,6.319c2.218,0.222,4.32-1.058,5.239-3.188L1194.113,2706.399z"/>
					<path style="opacity:0.7;fill:#FFFFFF;" d="M942.126,2561.684c16.638,35.151,6.701,78.787-24.836,101.769
						c-34.668,25.26-82.499,16.14-106.633-20.328c-11.696-17.666-16.144-39.042-12.536-60.182
						c3.606-21.144,14.84-39.529,31.634-51.763c34.668-25.261,82.499-16.14,106.633,20.327
						C938.563,2554.795,940.476,2558.199,942.126,2561.684z M820.88,2624.557c1.285,2.715,2.764,5.346,4.442,7.882
						c18.502,27.961,55.181,34.95,81.756,15.587c26.578-19.368,33.162-57.872,14.646-85.834
						c-18.501-27.961-55.18-34.951-81.756-15.587c-12.877,9.384-21.49,23.477-24.256,39.69
						C813.465,2599.471,815.3,2612.768,820.88,2624.557z"/>
					<path style="opacity:0.7;fill:#FFFFFF;" d="M1040.474,2508.68c2.857,6.037,5.443,12.26,7.739,18.653l0,0
						c0.723,2.011,1.414,4.037,2.076,6.073c3.257,10.039,5.75,20.333,7.44,30.721c0.023,0.142,0.046,0.283,0.07,0.425
						c0.064,0.402,0.127,0.804,0.187,1.208c0.123,0.783,0.236,1.569,0.349,2.352c0.295,2.063-0.736,4.009-2.422,4.889
						c-0.41,0.213-0.86,0.363-1.336,0.437c-2.44,0.378-4.707-1.4-5.077-3.959c-1.878-13.193-5.125-26.263-9.647-38.85
						c-22.439-62.533-73.294-105.313-131.336-118.235c-32.283-7.192-66.79-5.142-99.872,7.891c-5.802,2.283-11.45,4.859-16.925,7.71
						c-36.851,19.177-66.029,50.835-83.211,90.722c-19.74,45.816-21.292,97.008-4.371,144.14
						c34.956,97.338,138.656,146.8,231.208,110.345c5.707-2.247,11.284-4.791,16.707-7.615
						c23.506-12.234,44.19-29.741,60.508-51.341c0.422-0.558,0.939-0.988,1.51-1.282c1.5-0.78,3.363-0.637,4.764,0.534
						c1.931,1.621,2.267,4.563,0.727,6.595c-17.132,22.676-38.847,41.06-63.525,53.903c-5.693,2.965-11.546,5.633-17.535,7.994
						c-97.172,38.275-206.064-13.724-242.726-115.838c-17.765-49.482-16.134-103.22,4.589-151.319
						c18.038-41.875,48.669-75.108,87.355-95.243c5.749-2.991,11.678-5.694,17.766-8.094c47.073-18.54,98.243-16.701,144.087,5.178
						C989.494,2435.723,1021.213,2467.989,1040.474,2508.68z"/>
				</g>
			</g>
			<g>
				<g style="opacity:0.3;">
					
						<linearGradient id="SVGID_00000145749376803332280630000011707774687978506393_" gradientUnits="userSpaceOnUse" x1="449.4445" y1="10368.1191" x2="468.6772" y2="10368.1191" gradientTransform="matrix(-0.4445 -0.8958 0.8958 -0.4445 -7542.5566 8227.3662)">
						<stop  offset="0" style="stop-color:#FF928E"/>
						<stop  offset="1" style="stop-color:#FE7062"/>
					</linearGradient>
					<path style="fill:url(#SVGID_00000145749376803332280630000011707774687978506393_);" d="M1553.827,3198.364
						c1.33,2.809,0.812,6.303-1.491,8.536c-4.295,4.17-8.769,8.261-13.299,12.155c-2.943,2.531-7.286,2.072-9.708-1.027
						c-2.433-3.093-1.989-7.663,0.954-10.194c4.316-3.711,8.581-7.609,12.681-11.588c2.79-2.712,7.155-2.525,9.748,0.414
						C1553.171,3197.184,1553.54,3197.758,1553.827,3198.364z"/>
					
						<linearGradient id="SVGID_00000037656492853512813030000008568461527747120528_" gradientUnits="userSpaceOnUse" x1="440.4837" y1="10164.8867" x2="805.5891" y2="10164.8867" gradientTransform="matrix(-0.4445 -0.8958 0.8958 -0.4445 -7542.5566 8227.3662)">
						<stop  offset="0" style="stop-color:#FF928E"/>
						<stop  offset="1" style="stop-color:#FE7062"/>
					</linearGradient>
					<path style="fill:url(#SVGID_00000037656492853512813030000008568461527747120528_);" d="M1511.759,3232.227
						c1.558,3.291,0.523,7.346-2.494,9.339c-8.524,5.636-17.423,10.875-26.445,15.568c-1.9,0.988-3.816,1.957-5.747,2.911
						c-3.451,1.696-7.521-0.122-9.187-3.483c-1.625-3.623-0.149-7.936,3.293-9.636c1.847-0.91,3.679-1.835,5.494-2.779
						c8.606-4.477,17.093-9.474,25.223-14.845c3.223-2.131,7.479-1.11,9.517,2.276
						C1511.538,3231.793,1511.656,3232.008,1511.759,3232.227z M1446.978,3264.152c0.145,0.307,0.276,0.631,0.381,0.963
						c1.193,3.806-0.772,7.898-4.39,9.144c-11.606,3.999-23.554,7.274-35.505,9.734c-3.738,0.771-7.366-1.811-8.109-5.716
						c-0.74-3.93,1.684-7.731,5.422-8.503c11.403-2.348,22.797-5.474,33.867-9.286
						C1441.942,3259.355,1445.474,3260.975,1446.978,3264.152z M1376.723,3278.605c0.39,0.824,0.635,1.74,0.705,2.712
						c0.273,3.991-2.592,7.45-6.391,7.727c-12.173,0.88-24.537,0.974-36.739,0.265c-3.809-0.219-6.723-3.627-6.523-7.635
						c0.2-3.992,3.448-7.054,7.25-6.834c11.638,0.675,23.421,0.591,35.031-0.253
						C1372.927,3274.38,1375.515,3276.052,1376.723,3278.605z M1305.191,3274.467c0.637,1.345,0.88,2.905,0.616,4.492
						c-0.669,3.937-4.254,6.557-8.004,5.844c-12.039-2.284-24.045-5.372-35.694-9.182c-3.639-1.194-5.67-5.262-4.55-9.073
						c1.122-3.82,4.984-5.951,8.628-4.762c11.1,3.634,22.558,6.58,34.035,8.757
						C1302.46,3270.968,1304.25,3272.479,1305.191,3274.467z M1236.751,3252.107c0.889,1.877,0.999,4.143,0.118,6.203
						c-1.559,3.644-5.641,5.261-9.118,3.617c-11.138-5.286-22.075-11.34-32.502-17.999c-3.268-2.077-4.304-6.538-2.329-9.956
						c1.975-3.418,6.218-4.503,9.472-2.422c9.952,6.353,20.382,12.129,31.013,17.169
						C1234.917,3249.438,1236.065,3250.658,1236.751,3252.107z M1175.52,3212.997c1.151,2.432,0.947,5.447-0.759,7.718
						c-2.357,3.134-6.693,3.659-9.686,1.178c-9.588-7.965-18.794-16.635-27.356-25.766c-2.675-2.872-2.644-7.444,0.065-10.248
						c2.709-2.804,7.08-2.762,9.753,0.091c8.166,8.709,16.939,16.971,26.08,24.564
						C1174.446,3211.22,1175.08,3212.068,1175.52,3212.997z M1125.229,3159.387c1.441,3.043,0.683,6.825-1.974,8.961
						c-3.021,2.43-7.352,1.822-9.675-1.355c-7.415-10.155-14.319-20.931-20.527-32.03c-1.88-3.495-0.829-7.898,2.455-9.915
						c3.283-2.02,7.509-0.856,9.443,2.595c5.915,10.591,12.501,20.868,19.572,30.55
						C1124.8,3158.574,1125.034,3158.975,1125.229,3159.387z M1076.724,3058.974c0.177,0.374,0.328,0.773,0.444,1.192
						c2.838,10.141,6.255,20.297,10.156,30.189c0.583,1.502,1.172,2.969,1.778,4.425c1.515,3.677-0.083,7.938-3.578,9.524
						c-3.499,1.595-7.672-0.075-9.078-3.777c-0.639-1.557-1.27-3.113-1.881-4.688c-4.073-10.337-7.655-20.984-10.629-31.618
						c-1.075-3.843,1.014-7.862,4.67-8.981C1071.861,3054.241,1075.261,3055.882,1076.724,3058.974z"/>
				</g>
				<g style="opacity:0.3;">
					
						<linearGradient id="SVGID_00000019644854969679892580000005864079686632505728_" gradientUnits="userSpaceOnUse" x1="610.9196" y1="10514.4951" x2="1031.4026" y2="10514.4951" gradientTransform="matrix(-0.4445 -0.8958 0.8958 -0.4445 -7542.5566 8227.3662)">
						<stop  offset="0" style="stop-color:#FF928E"/>
						<stop  offset="1" style="stop-color:#FE7062"/>
					</linearGradient>
					<path style="fill:url(#SVGID_00000019644854969679892580000005864079686632505728_);" d="M1614.703,2834.225
						c1.678,3.545,0.336,7.855-3.025,9.662c-3.385,1.82-7.548,0.409-9.287-3.154c-5.243-10.728-11.153-21.211-17.567-31.159
						c-2.096-3.316-1.32-7.821,1.837-10.06c3.156-2.239,7.444-1.36,9.583,1.953c6.721,10.437,12.921,21.424,18.417,32.668
						C1614.661,2834.135,1614.689,2834.196,1614.703,2834.225z M1628.921,2868.184c0.111,0.235,0.208,0.473,0.297,0.723
						c4.175,11.837,7.706,24.06,10.498,36.326c0.882,3.896-1.398,7.796-5.103,8.717c-3.71,0.927-7.427-1.51-8.318-5.378
						c-2.663-11.707-6.033-23.368-10.013-34.666c-1.325-3.753,0.499-7.918,4.069-9.298
						C1623.693,2863.317,1627.372,2864.912,1628.921,2868.184z M1575.158,2772.909c1.363,2.879,0.775,6.465-1.636,8.675
						c-2.862,2.624-7.219,2.31-9.73-0.708c-7.562-9.086-15.707-17.766-24.222-25.799c-2.831-2.696-3.075-7.259-0.529-10.232
						c2.539-2.973,6.904-3.213,9.742-0.536c8.924,8.421,17.464,17.524,25.386,27.051
						C1574.572,2771.844,1574.9,2772.364,1575.158,2772.909z M1645.268,2940.225c0.349,0.738,0.585,1.552,0.68,2.42
						c1.346,12.545,1.966,25.303,1.84,37.915c-0.037,4.002-3.159,7.203-6.97,7.155c-3.799-0.055-6.857-3.34-6.824-7.336
						c0.117-12.026-0.475-24.186-1.756-36.148c-0.424-3.976,2.299-7.558,6.084-7.994
						C1641.279,2935.895,1644.013,2937.574,1645.268,2940.225z M1522.701,2723.422c1.088,2.299,0.98,5.134-0.514,7.376
						c-2.182,3.281-6.482,4.072-9.605,1.777c-9.386-6.905-19.271-13.276-29.391-18.938c-3.373-1.885-4.647-6.276-2.86-9.806
						c1.786-3.53,5.964-4.865,9.329-2.981c10.606,5.941,20.974,12.619,30.818,19.855
						C1521.457,2721.429,1522.204,2722.372,1522.701,2723.422z M1460.5,2688.566c0.833,1.76,0.986,3.862,0.265,5.833
						c-1.368,3.731-5.36,5.586-8.915,4.14c-10.712-4.353-21.765-8.063-32.847-11.026c-3.699-0.988-5.937-4.937-5.004-8.809
						c0.93-3.878,4.677-6.219,8.369-5.231c11.623,3.105,23.211,6.991,34.434,11.553
						C1458.477,2685.706,1459.758,2687,1460.5,2688.566z M1392.169,2670.343c0.585,1.236,0.845,2.658,0.664,4.132
						c-0.474,3.969-3.927,6.773-7.708,6.263c-11.381-1.544-22.951-2.36-34.385-2.43c-3.802-0.029-6.886-3.289-6.87-7.289
						c0.014-4.002,3.111-7.225,6.925-7.202c11.988,0.078,24.124,0.932,36.063,2.545
						C1389.235,2666.685,1391.175,2668.244,1392.169,2670.343z"/>
					
						<linearGradient id="SVGID_00000053503591187721373360000016298880262619396753_" gradientUnits="userSpaceOnUse" x1="563.8796" y1="10534.3037" x2="593.0034" y2="10534.3037" gradientTransform="matrix(-0.4445 -0.8958 0.8958 -0.4445 -7542.5566 8227.3662)">
						<stop  offset="0" style="stop-color:#FF928E"/>
						<stop  offset="1" style="stop-color:#FE7062"/>
					</linearGradient>
					<path style="fill:url(#SVGID_00000053503591187721373360000016298880262619396753_);" d="M1644.525,3014.568
						c0.593,1.253,0.848,2.697,0.658,4.186c-0.782,6.145-1.743,12.291-2.85,18.273c-0.729,3.924-4.349,6.483-8.09,5.711
						c-3.73-0.783-6.175-4.584-5.456-8.511c1.058-5.703,1.972-11.569,2.722-17.432c0.505-3.965,3.979-6.74,7.753-6.199
						C1641.618,3010.936,1643.539,3012.485,1644.525,3014.568z"/>
				</g>
				<g>
					
						<linearGradient id="SVGID_00000048492403680341971480000017235380636934518695_" gradientUnits="userSpaceOnUse" x1="1452.157" y1="2626.4226" x2="1208.9641" y2="3443.9636">
						<stop  offset="0" style="stop-color:#FF928E"/>
						<stop  offset="1" style="stop-color:#FE7062"/>
					</linearGradient>
					<path style="fill:url(#SVGID_00000048492403680341971480000017235380636934518695_);" d="M1562.193,3050.674
						c0.614-1.424,0.299-3.104-0.785-4.18l-30.915-30.728c3.836-20.449,4.594-41.696,1.93-62.979l32.686-28.423
						c1.147-0.997,1.563-2.649,1.037-4.115l-18.005-50.154c-0.527-1.466-1.879-2.421-3.369-2.38l-42.467,1.179
						c-11.384-17.848-25.319-33.308-41.069-46.042l3.926-44.45c0.137-1.558-0.682-3.039-2.04-3.687l-46.467-22.176
						c-1.359-0.648-2.956-0.321-3.979,0.815l-29.182,32.396c-19.479-4.079-39.711-4.925-59.968-2.177l-27.139-34.399
						c-0.952-1.207-2.526-1.648-3.92-1.099l-47.709,18.792c-1.395,0.549-2.302,1.968-2.258,3.532l1.224,44.607
						c-16.967,11.914-31.652,26.513-43.739,43.025l-42.332-4.229c-1.483-0.148-2.891,0.708-3.504,2.132l-21.003,48.752
						c-0.614,1.424-0.298,3.103,0.785,4.18l30.915,30.727c-3.838,20.449-4.594,41.696-1.93,62.979l-32.688,28.423
						c-1.146,0.997-1.563,2.649-1.037,4.115l18.006,50.154c0.526,1.466,1.878,2.421,3.368,2.38l42.467-1.18
						c11.384,17.849,25.319,33.309,41.069,46.043l-3.925,44.449c-0.138,1.559,0.682,3.04,2.039,3.687l46.467,22.176
						c1.358,0.648,2.956,0.321,3.979-0.815l29.182-32.396c19.479,4.079,39.711,4.924,59.968,2.177l27.14,34.4
						c0.951,1.206,2.526,1.648,3.92,1.097l47.708-18.79c1.394-0.55,2.301-1.968,2.258-3.532l-1.224-44.607
						c16.966-11.914,31.652-26.512,43.739-43.024l42.331,4.228c1.484,0.148,2.891-0.708,3.506-2.133L1562.193,3050.674z"/>
					<path style="opacity:0.7;fill:#FFFFFF;" d="M1394.436,2953.479c4.958,10.476,6.589,22.288,4.593,33.996
						c-2.458,14.402-10.112,26.924-21.552,35.258c-23.604,17.204-56.185,10.994-72.631-13.844
						c-16.418-24.905-10.599-59.055,13.012-76.258c11.439-8.338,25.295-11.488,39.01-8.87c13.721,2.614,25.664,10.681,33.625,22.721
						C1391.978,2948.73,1393.297,2951.071,1394.436,2953.479z M1313.295,2995.538c0.827,1.747,1.784,3.45,2.873,5.101
						c12.097,18.269,36.062,22.836,53.43,10.18c8.41-6.13,14.046-15.341,15.849-25.932c1.807-10.598-0.432-21.3-6.279-30.16l0,0
						c-5.858-8.851-14.643-14.788-24.731-16.711c-10.095-1.924-20.286,0.394-28.702,6.527
						C1309.938,2956.054,1304.958,2977.924,1313.295,2995.538z"/>
					<path style="opacity:0.7;fill:#FFFFFF;" d="M1462.937,2916.678c1.945,4.109,3.706,8.354,5.283,12.734
						c3.126,8.699,5.413,17.74,6.799,26.893c0.06,0.412,0.119,0.823,0.178,1.235c0.456,3.185-1.136,6.19-3.74,7.549
						c-0.633,0.329-1.328,0.561-2.063,0.674c-3.767,0.584-7.263-2.165-7.839-6.113c-1.217-8.559-3.321-17.019-6.243-25.148
						l-0.002-0.003c-0.159-0.447-0.326-0.893-0.489-1.334c-7.084-19.174-18.446-35.779-33-48.743
						c-7.901-7.037-16.75-12.999-26.381-17.706c-0.078-0.039-0.156-0.077-0.235-0.115c-0.243-0.115-0.479-0.233-0.72-0.345
						c-28.271-13.49-59.826-14.626-88.851-3.193c-3.758,1.477-7.411,3.144-10.957,4.989c-23.856,12.415-42.744,32.911-53.872,58.735
						c-12.777,29.661-13.777,62.798-2.823,93.307c10.958,30.488,32.557,54.747,60.824,68.244
						c28.271,13.49,59.826,14.626,88.851,3.193c3.694-1.452,7.304-3.101,10.813-4.927c15.22-7.922,28.608-19.254,39.171-33.236
						c0.652-0.861,1.45-1.526,2.332-1.98c2.316-1.205,5.194-0.983,7.357,0.823c2.98,2.5,3.493,7.047,1.123,10.184
						c-11.82,15.645-26.801,28.327-43.822,37.19c-3.932,2.045-7.967,3.888-12.098,5.515c-32.478,12.792-67.78,11.521-99.411-3.575
						c-31.625-15.096-55.808-42.18-68.048-76.344c-12.258-34.138-11.137-71.21,3.166-104.396
						c12.443-28.89,33.576-51.819,60.267-65.708c3.962-2.061,8.053-3.929,12.253-5.584
						C1363.635,2824.733,1433.614,2854.729,1462.937,2916.678z"/>
				</g>
			</g>
		</g>
	</g>
</g>
</svg>
